#tb 0: 1/1000
0,          0,          0,        0,      768, 764bd02b781a38c621a109c12f3d9393
0,         33,         33,        0,      768, 79496bd2b9212026af816b3b7a0587d5
0,         66,         66,        0,      768, 2a3afd47ba3d075033fd94d5c3746c45
0,        100,        100,        0,      768, fca00cad8d37a6646337baebadd0ca31
0,        133,        133,        0,      768, aca376fb3f8a5ef670ecc2430037262a
0,        166,        166,        0,      768, 7e6c8d96d1e24855c3e380f1bf2ce02c
0,        200,        200,        0,      768, 09e051241972969d439f27f324d78490
0,        233,        233,        0,      768, 2566b2a425caaba41305bf04ff10ea01
0,        266,        266,        0,      768, db3995bedee42ada1b4ee63c339daf1b
0,        300,        300,        0,      768, b00b8f1bf4fd907f0487738f5b5442c6
